<svg ref="svg" xmlns="http://www.w3.org/2000/svg" viewBox="0 0 20 20" width="20" height="20">
  <path stroke-linejoin="round" fill="none" stroke="currentColor" stroke-width="1.2" fill-rule="evenodd" d="M15 10c0 2.7614-2.2386 5-5 5m5-5c0-2.76142-2.2386-5-5-5m5 5h-5m0 5c-2.76142 0-5-2.2386-5-5 0-2.76142 2.23858-5 5-5m0 10V5m0 15v-3M2.92946 2.92897l2.12132 2.12132M0 10h3m-.07054 7.071l2.12132-2.1213M10 0v3m7.0705 14.071l-2.1213-2.1213M20 10h-3m.0705-7.07103l-2.1213 2.12132M14.3242 7.5H10m4.3242 5H10"></path>
</svg>
