<svg ref="svg" xmlns="http://www.w3.org/2000/svg" viewBox="0 0 20 20" width="20" height="20">
  <path stroke-linejoin="round" fill="none" stroke="currentColor" stroke-width="1.2" fill-rule="evenodd" d="M19 13h-2m0 0c-2.2091 0-4-1.7909-4-4m4 4c-2.2091 0-4 1.7909-4 4m0-8V7m0 2c0 2.2091-1.7909 4-4 4m-2 0h2m0 0c2.2091 0 4 1.7909 4 4m0 0v2M8 8.5H6.5m0 0c-1.10457 0-2-.89543-2-2m2 2c-1.10457 0-2 .89543-2 2m0-4V5m0 1.5c0 1.10457-.89543 2-2 2M1 8.5h1.5m0 0c1.10457 0 2 .89543 2 2m0 0V12M12 3h-1m0 0c-.5523 0-1-.44772-1-1m1 1c-.5523 0-1 .44772-1 1m0-2V1m0 1c0 .55228-.44772 1-1 1M8 3h1m0 0c.55228 0 1 .44772 1 1m0 0v1"></path>
</svg>
