<svg ref="svg" xmlns="http://www.w3.org/2000/svg" viewBox="0 0 20 20" width="20" height="20">
  <path stroke-linejoin="round" fill="none" stroke="currentColor" stroke-width="1.2" fill-rule="evenodd" d="M19.6001 4.99993l-1.6-1.5-1.6 1.5m3.2 9.99997l-1.6 1.5-1.6-1.5M18 3.52337V16.4765M3.3 8.49993h10.654c.3014 0 .4146-.39466.159-.5544L3.459 1.2868C3.25919 1.16192 3 1.30557 3 1.5412v6.65873c0 .16568.13432.3.3.3zm0 2.99997h10.654c.3014 0 .4146.3947.159.5544L3.459 18.7131c-.19981.1248-.459-.0188-.459-.2544v-6.6588c0-.1657.13432-.3.3-.3z"></path>
</svg>
