<svg ref="svg" xmlns="http://www.w3.org/2000/svg" viewBox="0 0 20 20" width="20" height="20">
  <path stroke-linejoin="round" fill="none" stroke="currentColor" stroke-width="1.2" fill-rule="evenodd" d="M5.00042.399902l-1.5 1.599998 1.5 1.6M15.0004.399902l1.5 1.599998-1.5 1.6M3.51995 2H16.477M8.50042 16.7V6.04604c0-.30141-.39466-.41459-.5544-.159L1.28729 16.541c-.12488.1998.01877.459.2544.459h6.65873c.16568 0 .3-.1343.3-.3zm2.99998 0V6.04604c0-.30141.3947-.41459.5544-.159L18.7135 16.541c.1249.1998-.0187.459-.2544.459h-6.6587c-.1657 0-.3-.1343-.3-.3z"></path>
</svg>
