<svg ref="svg" xmlns="http://www.w3.org/2000/svg" viewBox="0 0 20 20" width="20" height="20">
  <path d="M7.5 13.0505l.42854.4199.17146-.1749v-.245h-.6zm5 0h-.6v.245l.1715.1749.4285-.4199zM8.1 3.5c0-1.04934.85066-1.9 1.9-1.9V.4C8.28792.4 6.9 1.78792 6.9 3.5h1.2zm0 9.5505V3.5H6.9v9.5505h1.2zM7.1 15.5c0-.7904.31539-1.5059.82854-2.0296l-.85708-.8398C6.34742 13.3694 5.9 14.3831 5.9 15.5h1.2zm2.9 2.9c-1.60163 0-2.9-1.2984-2.9-2.9H5.9c0 2.2644 1.83563 4.1 4.1 4.1v-1.2zm2.9-2.9c0 1.6016-1.2984 2.9-2.9 2.9v1.2c2.2644 0 4.1-1.8356 4.1-4.1h-1.2zm-.8285-2.0296c.5131.5237.8285 1.2392.8285 2.0296h1.2c0-1.1169-.4474-2.1306-1.1715-2.8694l-.857.8398zM11.9 3.5v9.5505h1.2V3.5h-1.2zM10 1.6c1.0493 0 1.9.85066 1.9 1.9h1.2c0-1.71208-1.3879-3.1-3.1-3.1v1.2z" fill="currentColor"/>
  <path d="M10 14V8" stroke="currentColor" stroke-width="1.2" stroke-linecap="round"/>
  <path d="M14 3h3m-3 3h3m-3 3h3m-8 6.5a1 1 0 102 0 1 1 0 10-2 0" stroke="currentColor" stroke-width="1.2"/>
</svg>