<svg ref="svg" xmlns="http://www.w3.org/2000/svg" viewBox="0 0 24 24" width="24" height="24">
  <path fill="currentColor" fill-rule="evenodd" d="M1.01 4.148a.75.75 0 0 1 .75.75v4.348a4.437 4.437 0 0 1 2.988-1.153c1.734 0 3.23.992 3.978 2.438a4.478 4.478 0 0 1 3.978-2.438c2.49 0 4.488 2.044 4.488 4.543 0 2.5-1.999 4.544-4.488 4.544a4.478 4.478 0 0 1-3.978-2.438 4.478 4.478 0 0 1-3.978 2.438C2.26 17.18.26 15.135.26 12.636V4.898a.75.75 0 0 1 .75-.75Zm.75 8.488c0 1.692 1.348 3.044 2.988 3.044s2.989-1.352 2.989-3.044c0-1.691-1.349-3.043-2.989-3.043S1.76 10.945 1.76 12.636Zm10.944-3.043c-1.64 0-2.988 1.352-2.988 3.043 0 1.692 1.348 3.044 2.988 3.044s2.988-1.352 2.988-3.044c0-1.69-1.348-3.043-2.988-3.043Zm4.328-1.23a.75.75 0 0 1 1.052.128l2.333 2.983 2.333-2.983a.75.75 0 0 1 1.181.924l-2.562 3.277 2.562 3.276a.75.75 0 1 1-1.181.924l-2.333-2.983-2.333 2.983a.75.75 0 1 1-1.181-.924l2.562-3.276-2.562-3.277a.75.75 0 0 1 .129-1.052Z"></path>
</svg>