<svg ref="svg" xmlns="http://www.w3.org/2000/svg" viewBox="0 0 24 24" width="24" height="24">
  <path fill="currentColor" fill-rule="evenodd" d="m4.60395 4.60395c.29289-.2929.76776-.2929 1.06066 0l6.33539 6.33535 6.3354-6.33535c.2929-.2929.7677-.2929 1.0606 0 .2929.29289.2929.76776 0 1.06066l-6.3353 6.33539 6.3353 6.3354c.2929.2929.2929.7677 0 1.0606s-.7677.2929-1.0606 0l-6.3354-6.3353-6.33539 6.3353c-.2929.2929-.76777.2929-1.06066 0-.2929-.2929-.2929-.7677 0-1.0606l6.33535-6.3354-6.33535-6.33539c-.2929-.2929-.2929-.76777 0-1.06066z"></path>
</svg>