<svg ref="svg" xmlns="http://www.w3.org/2000/svg" viewBox="0 0 24 24" width="24" height="24">
  <path fill="currentColor" fill-rule="evenodd" d="m6.01895 1.92072c.24583-.15659.56012-.15658.80593.00003l5.17512 3.29711 5.1761-3.29714c.2458-.15659.5601-.15658.8059.00003l5.5772 3.55326c.2162.13771.347.37625.347.63253 0 .25629-.1308.49483-.347.63254l-4.574 2.91414 4.574 2.91418c.2162.1377.347.3762.347.6325s-.1308.4948-.347.6325l-5.5772 3.5533c-.2458.1566-.5601.1566-.8059 0l-5.1761-3.2971-5.17512 3.2971c-.24581.1566-.5601.1566-.80593 0l-5.578142-3.5532c-.216172-.1377-.347058-.3763-.347058-.6326s.130886-.4949.347058-.6326l4.574772-2.91408-4.574772-2.91411c-.216172-.1377-.347058-.37626-.347058-.63257 0-.2563.130886-.49486.347058-.63256zm.40291 8.61518-4.18213 2.664 4.18213 2.664 4.18144-2.664zm6.97504 2.664 4.1821 2.664 4.1814-2.664-4.1814-2.664zm2.7758-3.54668-4.1727 2.65798-4.17196-2.65798 4.17196-2.658zm1.4063-.88268 4.1814-2.664-4.1814-2.664-4.1821 2.664zm-6.9757-2.664-4.18144-2.664-4.18213 2.664 4.18213 2.664zm-4.81262 12.43736c.22254-.3494.68615-.4522 1.03551-.2297l5.17521 3.2966 5.1742-3.2965c.3493-.2226.813-.1198 1.0355.2295.2226.3494.1198.813-.2295 1.0355l-5.5772 3.5533c-.2458.1566-.5601.1566-.8059 0l-5.57819-3.5532c-.34936-.2226-.45216-.6862-.22963-1.0355z"></path>
</svg>