<svg ref="svg" xmlns="http://www.w3.org/2000/svg" viewBox="0 0 24 24" width="24" height="24">
  <path fill="currentColor" fill-rule="evenodd" d="M9.804 2.27v-.048c.055-.263.313-.562.85-.562h.44c.142 0 .325.014.526.033.066.009.124.023.267.06l.13.032h.002c.319.079.515.275.644.482a1.461 1.461 0 0 1 .16.356l.004.012a.75.75 0 0 0 .603.577l1.191.207a1988.512 1988.512 0 0 0 2.332.402c.512.083 1.1.178 1.665.442.64.3 1.19.795 1.376 1.77.548 2.931.657 5.829.621 8a39.233 39.233 0 0 1-.125 2.602 17.518 17.518 0 0 1-.092.849.735.735 0 0 0-.024.112c-.378 2.705-1.269 3.796-2.04 4.27-.746.457-1.53.451-2.217.447h-.192c-.46 0-1.073-.23-1.581-.635-.518-.412-.763-.87-.763-1.217 0-.45.188-.688.355-.786.161-.095.436-.137.796.087a.75.75 0 1 0 .792-1.274c-.766-.476-1.64-.52-2.345-.108-.7.409-1.098 1.188-1.098 2.08 0 .996.634 1.84 1.329 2.392.704.56 1.638.96 2.515.96l.185.002c.667.009 1.874.025 3.007-.67 1.283-.786 2.314-2.358 2.733-5.276.01-.039.018-.078.022-.105.011-.061.023-.14.034-.23.023-.184.051-.445.079-.772.055-.655.111-1.585.13-2.704.037-2.234-.074-5.239-.647-8.301v-.002c-.294-1.544-1.233-2.391-2.215-2.85-.777-.363-1.623-.496-2.129-.576-.097-.015-.18-.028-.25-.041l-.006-.001-1.99-.345-.761-.132a2.93 2.93 0 0 0-.182-.338A2.532 2.532 0 0 0 12.379.329l-.091-.023a3.967 3.967 0 0 0-.493-.103L11.769.2a7.846 7.846 0 0 0-.675-.04h-.44c-.733 0-1.368.284-1.795.742L2.416 7.431c-.468.428-.751 1.071-.751 1.81 0 .02 0 .041.003.062l.003.034c.017.21.038.468.096.796.107.715.275 1.47.391 1.994.029.13.055.245.075.342l.002.008c.258 1.141.641 1.94.978 2.466.168.263.323.456.444.589a2.808 2.808 0 0 0 .192.194c1.536 1.562 3.713 2.196 5.731 2.08.13-.005.35-.032.537-.073a2.627 2.627 0 0 0 .652-.24c.425-.26.75-.661.992-1.046.184-.294.342-.61.473-.915.197.193.412.357.627.493a5.022 5.022 0 0 0 1.97.709l.023.002.018.003.11.016c.088.014.205.035.325.058l.056.014c.088.022.164.04.235.061a1.736 1.736 0 0 1 .145.048l.03.014c.765.34 1.302 1.09 1.302 1.871a.75.75 0 0 0 1.5 0c0-1.456-.964-2.69-2.18-3.235-.212-.103-.5-.174-.679-.217l-.063-.015a10.616 10.616 0 0 0-.606-.105l-.02-.003-.03-.003h-.002a3.542 3.542 0 0 1-1.331-.485c-.471-.298-.788-.692-.828-1.234a.75.75 0 0 0-1.48-.106l-.001.003-.004.017a8.23 8.23 0 0 1-.092.352 9.963 9.963 0 0 1-.298.892c-.132.34-.29.68-.47.966-.174.276-.339.454-.478.549a1.178 1.178 0 0 1-.221.072 1.949 1.949 0 0 1-.241.036h-.013l-.032.002c-1.684.1-3.423-.437-4.604-1.65a.746.746 0 0 0-.053-.05L4.84 14.6a1.348 1.348 0 0 1-.07-.073 2.99 2.99 0 0 1-.293-.392c-.242-.379-.558-1.014-.778-1.985a54.1 54.1 0 0 0-.083-.376 27.494 27.494 0 0 1-.367-1.872l-.003-.02a6.791 6.791 0 0 1-.08-.67c.004-.277.086-.475.2-.609l.067-.067a.63.63 0 0 1 .292-.145h.05c.18 0 1.095.055 2.013.115l1.207.08.534.037a.747.747 0 0 0 .052.002c.782 0 1.349-.206 1.759-.585l.005-.005c.553-.52.622-1.225.622-1.76V6.24l-.026-.565A774.97 774.97 0 0 1 9.885 4.4c-.042-.961-.081-1.939-.081-2.13ZM4.995 6.953a251.126 251.126 0 0 1 2.102.137l.508.035c.48-.004.646-.122.715-.185.07-.068.146-.209.147-.649l-.024-.548a791.69 791.69 0 0 1-.095-2.187L4.995 6.953Zm16.122 9.996ZM15.638 11.626a.75.75 0 0 0 1.014.31 2.04 2.04 0 0 1 .304-.089 1.84 1.84 0 0 1 .544-.039c.215.023.321.06.37.085.033.016.039.026.047.04a.75.75 0 0 0 1.289-.767c-.337-.567-.906-.783-1.552-.85a3.334 3.334 0 0 0-1.002.062c-.27.056-.531.14-.705.234a.75.75 0 0 0-.31 1.014Z"></path>
</svg>