<svg ref="svg" xmlns="http://www.w3.org/2000/svg" viewBox="0 0 24 24" width="24" height="24">
  <path fill="currentColor" fill-rule="evenodd" d="M12.0001 8.33716L3.53033 16.8068C3.23743 17.0997 2.76256 17.0997 2.46967 16.8068C2.17678 16.5139 2.17678 16.0391 2.46967 15.7462L11.0753 7.14067C11.1943 7.01825 11.3365 6.92067 11.4936 6.8536C11.6537 6.78524 11.826 6.75 12.0001 6.75C12.1742 6.75 12.3465 6.78524 12.5066 6.8536C12.6637 6.92067 12.8059 7.01826 12.925 7.14068L21.5304 15.7462C21.8233 16.0391 21.8233 16.5139 21.5304 16.8068C21.2375 17.0997 20.7627 17.0997 20.4698 16.8068L12.0001 8.33716Z"></path>
</svg>