<svg ref="svg" xmlns="http://www.w3.org/2000/svg" viewBox="0 0 24 24" width="24" height="24">
  <path fill="currentColor" fill-rule="evenodd" d="m12 1.5c-5.79901 0-10.5 4.70099-10.5 10.5 0 4.9427 3.41586 9.0888 8.01562 10.2045v-6.1086h-2.13281c-.41421 0-.75-.3358-.75-.75v-3.2812c0-.4142.33579-.75.75-.75h2.13281v-1.92189c0-.95748.22571-2.51089 1.38068-3.6497 1.1934-1.17674 3.1742-1.71859 6.2536-1.05619.3455.07433.5923.3798.5923.73323v2.75395c0 .41422-.3358.75-.75.75-.6917 0-1.2029.02567-1.5844.0819-.3865.05694-.5781.13711-.675.20223-.1087.07303-.2367.20457-.2367 1.02837v1.0781h2.3906c.2193 0 .4275.0959.57.2626.1425.1666.205.3872.1709.6038l-.5156 3.2813c-.0573.3647-.3716.6335-.7409.6335h-1.875v6.1058c4.5939-1.1198 8.0039-5.2631 8.0039-10.2017 0-5.79901-4.701-10.5-10.5-10.5zm-12 10.5c0-6.62744 5.37256-12 12-12 6.6274 0 12 5.37256 12 12 0 5.9946-4.3948 10.9614-10.1384 11.8564-.2165.0337-.4369-.0289-.6033-.1714s-.2622-.3506-.2622-.5697v-7.7694c0-.4142.3358-.75.75-.75h1.9836l.28-1.7812h-2.2636c-.4142 0-.75-.3358-.75-.75v-1.8281c0-.82854.0888-1.72825.9-2.27338.3631-.24396.8072-.36961 1.293-.4412.3081-.0454.6583-.07238 1.0531-.08618v-1.39629c-2.4096-.40504-3.6447.13262-4.2928.77165-.7376.72735-.9338 1.79299-.9338 2.58161v2.67189c0 .4142-.3358.75-.75.75h-2.13279v1.7812h2.13279c.4142 0 .75.3358.75.75v7.7712c0 .219-.0956.427-.2619.5695-.1662.1424-.3864.2052-.6028.1717-5.74968-.8898-10.1509-5.8593-10.1509-11.8583z"></path>
</svg>