<svg ref="svg" xmlns="http://www.w3.org/2000/svg" viewBox="0 0 24 24" width="24" height="24">
  <path fill="currentColor" fill-rule="evenodd" d="M6.204 2.002c-.252.23-.357.486-.357.67V21.07c0 .15.084.505.313.812.208.28.499.477.929.477.519 0 .796-.174.956-.365.178-.212.286-.535.286-.924v-.013l.117-6.58c.004-1.725 1.419-3.883 3.867-3.883 1.33 0 2.332.581 2.987 1.364.637.762.95 1.717.95 2.526v6.47c0 .392.11.751.305.995.175.22.468.41 1.008.41.52 0 .816-.198 1.002-.437.207-.266.31-.633.31-.969V14.04c0-2.81-1.943-5.108-4.136-5.422a5.971 5.971 0 0 0-3.183.41c-.912.393-1.538.96-1.81 1.489a.75.75 0 0 1-1.417-.344v-7.5c0-.587-.47-1.031-1.242-1.031-.315 0-.638.136-.885.36ZM5.194.892A2.844 2.844 0 0 1 7.09.142c1.328 0 2.742.867 2.742 2.53v5.607a6.358 6.358 0 0 1 1.133-.629 7.47 7.47 0 0 1 3.989-.516c3.056.436 5.425 3.482 5.425 6.906v6.914c0 .602-.177 1.313-.627 1.89-.47.605-1.204 1.016-2.186 1.016-.96 0-1.698-.37-2.179-.973-.46-.575-.633-1.294-.633-1.933v-6.469c0-.456-.19-1.071-.602-1.563-.394-.471-.986-.827-1.836-.827-1.447 0-2.367 1.304-2.367 2.39v.014l-.117 6.58c-.001.64-.177 1.333-.637 1.881-.48.57-1.2.9-2.105.9-.995 0-1.7-.5-2.132-1.081-.41-.552-.61-1.217-.61-1.708V2.672c0-.707.366-1.341.847-1.78Z"></path>
</svg>