<svg ref="svg" xmlns="http://www.w3.org/2000/svg" viewBox="0 0 24 24" width="24" height="24">
  <path fill="currentColor" fill-rule="evenodd" d="m3 3.75c-.82843 0-1.5.67157-1.5 1.5v13.5c0 .8284.67157 1.5 1.5 1.5h18c.8284 0 1.5-.6716 1.5-1.5v-9.75c0-.82843-.6716-1.5-1.5-1.5h-9c-.2634 0-.5076-.13822-.6431-.36413l-2.03154-3.38587zm-3 1.5c0-1.65685 1.34315-3 3-3h6.75c.2634 0 .5076.13822.6431.36413l2.0315 3.38587h8.5754c1.6569 0 3 1.34315 3 3v9.75c0 1.6569-1.3431 3-3 3h-18c-1.65685 0-3-1.3431-3-3z"></path>
</svg>