<svg width="24" height="24" viewBox="0 0 24 24" xmlns="http://www.w3.org/2000/svg">
  <path fill="currentColor" fill-rule="evenodd" clip-rule="evenodd" d="M7.5 4.78125C7.5 2.29597 9.51472 0.28125 12 0.28125C14.4853 0.28125 16.5 2.29597 16.5 4.78125V6L20.0244 2.47564C20.3173 2.18275 20.7921 2.18275 21.085 2.47564C21.3779 2.76854 21.3779 3.24341 21.085 3.5363L5.0363 19.585C4.74341 19.8779 4.26854 19.8779 3.97564 19.585C3.68275 19.2921 3.68275 18.8172 3.97564 18.5244L5.63242 16.8676C4.06267 15.2625 3.09375 13.0644 3.09375 10.6406C3.09375 10.2264 3.42954 9.89062 3.84375 9.89062C4.25796 9.89062 4.59375 10.2264 4.59375 10.6406C4.59375 12.6499 5.39315 14.4719 6.69313 15.8069L8.46511 14.0349C7.8612 13.2691 7.5 12.3015 7.5 11.25V4.78125ZM9.53682 12.9632L15 7.5V4.78125C15 3.1244 13.6569 1.78125 12 1.78125C10.3431 1.78125 9 3.1244 9 4.78125V11.25C9 11.887 9.19805 12.4772 9.53682 12.9632ZM20.1562 9.89062C20.5705 9.89062 20.9062 10.2264 20.9062 10.6406C20.9062 15.3068 17.3178 19.1349 12.75 19.5157V22.2188H16.0078C16.422 22.2188 16.7578 22.5545 16.7578 22.9688C16.7578 23.383 16.422 23.7188 16.0078 23.7188H7.99219C7.57797 23.7188 7.24219 23.383 7.24219 22.9688C7.24219 22.5545 7.57797 22.2188 7.99219 22.2188H11.25V19.5157C10.1734 19.4258 9.15009 19.1443 8.21528 18.7048C7.84042 18.5286 7.67938 18.0819 7.85559 17.707C8.0318 17.3322 8.47854 17.1711 8.8534 17.3473C9.80749 17.7958 10.8734 18.0469 12 18.0469C16.0904 18.0469 19.4062 14.731 19.4062 10.6406C19.4062 10.2264 19.742 9.89062 20.1562 9.89062ZM15 10.8104C15 10.3962 15.3358 10.0604 15.75 10.0604C16.1642 10.0604 16.5 10.3962 16.5 10.8104V11.25C16.5 13.7353 14.4853 15.75 12 15.75C11.8316 15.75 11.665 15.7407 11.5009 15.7226C11.0892 15.6771 10.7923 15.3064 10.8379 14.8947C10.8834 14.483 11.254 14.1861 11.6657 14.2317C11.7752 14.2438 11.8867 14.25 12 14.25C13.6569 14.25 15 12.9069 15 11.25V10.8104Z"/>
</svg>
