<svg ref="svg" xmlns="http://www.w3.org/2000/svg" viewBox="0 0 24 24" width="24" height="24">
  <path fill="currentColor" fill-rule="evenodd" d="m7.73633 1.81806c.13459-.22968.38086-.37079.64707-.37079h7.587c.2718 0 .5223.14697.6548.38419l7.2327 12.94554c.1281.2293.1269.5089-.0031.7371l-3.7935 6.6594c-.1334.2342-.3822.3788-.6517.3788l-14.81918.0004c-.26952 0-.51831-.1446-.65171-.3788l-3.793526-6.6598c-.1327095-.233-.130949-.5191.004617-.7504zm.63943 1.87562-6.71271 11.45452 2.93022 5.1443 6.65493-11.58056zm3.73574 6.52652-2.39793 4.1727 4.78633.0001zm4.1168 4.1729 5.6967-.0002-6.3946-11.44563h-5.85354zm5.6844 1.4998h-13.06111l-2.96515 5.1598 13.08726-.0004z"></path>
</svg>