<svg ref="svg" xmlns="http://www.w3.org/2000/svg" viewBox="0 0 24 24" width="24" height="24">
  <path fill="currentColor" fill-rule="evenodd" d="M13.616 4.147a7.689 7.689 0 0 0-7.642 3.285A6.299 6.299 0 0 0 1.455 17.3c.684.894 2.473 2.658 5.17 2.658h12.141c.95 0 1.882-.256 2.697-.743.815-.486 1.514-1.247 1.964-2.083a5.26 5.26 0 0 0-3.713-7.612 7.69 7.69 0 0 0-6.098-5.373ZM3.34 17.15c.674.63 1.761 1.308 3.284 1.308h12.142a3.76 3.76 0 0 0 2.915-1.383l-7.494-4.489L3.34 17.15Zm10.875-6.25 2.47-1.038a5.239 5.239 0 0 1 1.427-.389 6.19 6.19 0 0 0-10.3-1.952 6.338 6.338 0 0 1 2.118.813l4.285 2.567Zm4.55.033c-.512 0-1.019.104-1.489.307l-.006.003-1.414.594 6.521 3.906a3.76 3.76 0 0 0-3.357-4.8l-.254-.01ZM4.097 9.617A4.799 4.799 0 0 1 6.558 8.9c.9 0 1.84.25 2.587.713l3.4 2.037-10.17 4.28a4.799 4.799 0 0 1 1.721-6.312Z"></path>
</svg>