<svg ref="svg" xmlns="http://www.w3.org/2000/svg" viewBox="0 0 24 24" width="24" height="24">
  <path fill="currentColor" fill-rule="evenodd" d="m11.5014.392135c.2844-.253315.7134-.253315.9978 0l6.7037 5.971925c.3093.27552.3366.74961.0611 1.05889-.2755.30929-.7496.33666-1.0589.06113l-5.4553-4.85982v13.43864c0 .4142-.3358.75-.75.75s-.75-.3358-.75-.75v-13.43771l-5.45427 4.85889c-.30929.27553-.78337.24816-1.0589-.06113-.27553-.30928-.24816-.78337.06113-1.05889zm-10.644466 16.336765c.414216 0 .749996.3358.749996.75v4.9139h20.78567v-4.9139c0-.4142.3358-.75.75-.75.4143 0 .75.3358.75.75v5.6639c0 .4143-.3357.75-.75.75h-22.285666c-.414214 0-.75-.3357-.75-.75v-5.6639c0-.4142.335786-.75.75-.75z"></path>
</svg>