<svg ref="svg" xmlns="http://www.w3.org/2000/svg" viewBox="0 0 24 24" width="24" height="24">
  <path fill="currentColor" fill-rule="evenodd" d="m19.1099 3.67026c-1.7092-1.70917-4.5776-1.68265-6.4076.14738l-2.2212 2.22122c-.2929.29289-.7678.29289-1.0607 0-.29289-.29289-.29289-.76777 0-1.06066l2.2212-2.22122c2.376-2.375966 6.1949-2.481407 8.5289-.14738l1.2202 1.22015c2.334 2.33403 2.2286 6.15294-.1474 8.52895l-2.2212 2.2212c-.2929.2929-.7678.2929-1.0607 0s-.2929-.7678 0-1.0607l2.2212-2.2212c1.8301-1.83003 1.8566-4.69842.1474-6.40759zm-3.3597 4.57991c.2929.29289.2929.76776 0 1.06066l-6.43918 6.43927c-.29289.2928-.76777.2928-1.06066 0-.29289-.2929-.29289-.7678 0-1.0607l6.43924-6.43923c.2929-.2929.7677-.2929 1.0606 0zm-9.71158 1.17048c.29289.29289.29289.76775 0 1.06065l-2.22123 2.2212c-1.83002 1.8301-1.85654 4.6984-.14737 6.4076l1.22015 1.2202c1.70917 1.7091 4.57756 1.6826 6.40763-.1474l2.2212-2.2212c.2929-.2929.7677-.2929 1.0606 0s.2929.7677 0 1.0606l-2.2212 2.2212c-2.37595 2.376-6.19486 2.4815-8.52889.1474l-1.22015-1.2201c-2.334031-2.3341-2.22859-6.153.14737-8.5289l2.22123-2.22125c.29289-.2929.76776-.2929 1.06066 0z"></path>
</svg>