<svg ref="svg" xmlns="http://www.w3.org/2000/svg" viewBox="0 0 24 24" width="24" height="24">
  <path fill="currentColor" fill-rule="evenodd" d="M11.152 14.12v.1h1.523v-.1c.007-.409.053-.752.138-1.028.086-.277.22-.517.405-.72.188-.202.434-.397.735-.586.32-.191.593-.412.82-.66.232-.249.41-.531.533-.847.125-.32.187-.678.187-1.076 0-.579-.137-1.085-.41-1.518a2.717 2.717 0 0 0-1.14-1.018c-.49-.245-1.062-.367-1.715-.367-.597 0-1.142.114-1.636.34-.49.228-.884.564-1.182 1.008-.299.44-.46.98-.485 1.619h1.62c.024-.377.118-.684.282-.922.163-.241.369-.419.617-.532.25-.114.51-.17.784-.17.301 0 .575.063.82.191.248.124.447.302.597.533.149.23.223.504.223.82 0 .263-.05.502-.149.72-.1.216-.234.408-.405.574a3.48 3.48 0 0 1-.575.453c-.33.199-.613.42-.847.66-.234.242-.415.558-.543.949-.125.39-.19.916-.197 1.577ZM11.205 17.15c.21.206.46.31.75.31.196 0 .374-.049.534-.144.16-.096.287-.224.383-.384.1-.163.15-.343.15-.538a1 1 0 0 0-.32-.746 1.019 1.019 0 0 0-.746-.314c-.291 0-.542.105-.751.314-.21.206-.314.455-.314.746 0 .295.104.547.314.756ZM24 12c0 6.627-5.373 12-12 12S0 18.627 0 12 5.373 0 12 0s12 5.373 12 12Zm-1.5 0c0 5.799-4.701 10.5-10.5 10.5S1.5 17.799 1.5 12 6.201 1.5 12 1.5 22.5 6.201 22.5 12Z"></path>
</svg>