<svg ref="svg" xmlns="http://www.w3.org/2000/svg" viewBox="0 0 24 24" width="24" height="24">
  <path fill="currentColor" fill-rule="evenodd" d="M12.75 21C12.75 21.4142 12.4142 21.75 12 21.75C11.5858 21.75 11.25 21.4142 11.25 21V12.7499H3C2.58579 12.7499 2.25 12.4141 2.25 11.9999C2.25 11.5857 2.58579 11.2499 3 11.2499H11.25V3C11.25 2.58579 11.5858 2.25 12 2.25C12.4142 2.25 12.75 2.58579 12.75 3V11.2499H21C21.4142 11.2499 21.75 11.5857 21.75 11.9999C21.75 12.4141 21.4142 12.7499 21 12.7499H12.75V21Z"></path>
</svg>