<svg width="20" height="20" viewBox="0 0 20 20" xmlns="http://www.w3.org/2000/svg">
<path fill-rule="evenodd" clip-rule="evenodd" d="M2 4.66667C0.895431 4.66667 0 5.5621 0 6.66667V16C0 17.1046 0.895431 18 2 18H18C19.1046 18 20 17.1046 20 16V6.66667C20 5.5621 19.1046 4.66667 18 4.66667H15.3333L13.3333 2H6.66667L4.66667 4.66667H2ZM10 14.6667C12.025 14.6667 13.6667 13.025 13.6667 11C13.6667 8.97496 12.025 7.33333 10 7.33333C7.97496 7.33333 6.33333 8.97496 6.33333 11C6.33333 13.025 7.97496 14.6667 10 14.6667Z" fill="currentColor"/>
</svg>
