<svg ref="svg" xmlns="http://www.w3.org/2000/svg" viewBox="0 0 24 24" width="24" height="24">
  <path fill="currentColor" fill-rule="evenodd" d="M12.51 0c-.702 0-1.272.57-1.272 1.273V7.35A6.381 6.381 0 0 0 0 11.489c0 .703.57 1.273 1.273 1.273H7.35A6.381 6.381 0 0 0 11.488 24c.704 0 1.274-.57 1.274-1.273V16.65A6.381 6.381 0 0 0 24 12.51c0-.703-.57-1.273-1.273-1.273H16.65A6.381 6.381 0 0 0 12.511 0Zm.252 11.232V1.53a4.857 4.857 0 0 1 0 9.702Zm-1.53.006H1.53a4.857 4.857 0 0 1 9.702 0Zm1.536 1.524a4.857 4.857 0 0 0 9.702 0h-9.702Zm-6.136 4.857c0-2.598 2.04-4.72 4.606-4.85v9.7a4.857 4.857 0 0 1-4.606-4.85Z"></path>
</svg>