<svg width="24" height="24" viewBox="0 0 24 24" xmlns="http://www.w3.org/2000/svg">
  <path fill="currentColor" fill-rule="evenodd" clip-rule="evenodd" d="M7.5 4.78125C7.5 2.29597 9.51472 0.28125 12 0.28125C14.4853 0.28125 16.5 2.29597 16.5 4.78125V11.25C16.5 13.7353 14.4853 15.75 12 15.75C9.51472 15.75 7.5 13.7353 7.5 11.25V4.78125ZM12 1.78125C10.3431 1.78125 9 3.1244 9 4.78125V11.25C9 12.9069 10.3431 14.25 12 14.25C13.6569 14.25 15 12.9069 15 11.25V4.78125C15 3.1244 13.6569 1.78125 12 1.78125ZM3.84375 9.89062C4.25796 9.89062 4.59375 10.2264 4.59375 10.6406C4.59375 14.731 7.90964 18.0469 12 18.0469C16.0904 18.0469 19.4062 14.731 19.4062 10.6406C19.4062 10.2264 19.742 9.89062 20.1562 9.89062C20.5705 9.89062 20.9062 10.2264 20.9062 10.6406C20.9062 15.3068 17.3178 19.1349 12.75 19.5157V22.2188H16.0078C16.422 22.2188 16.7578 22.5545 16.7578 22.9688C16.7578 23.383 16.422 23.7188 16.0078 23.7188H7.99219C7.57797 23.7188 7.24219 23.383 7.24219 22.9688C7.24219 22.5545 7.57797 22.2188 7.99219 22.2188H11.25V19.5157C6.68219 19.1349 3.09375 15.3068 3.09375 10.6406C3.09375 10.2264 3.42954 9.89062 3.84375 9.89062Z" />
</svg>
