<svg ref="svg" width="24" height="24" viewBox="0 0 24 24" xmlns="http://www.w3.org/2000/svg">
  <path fill="currentColor" fill-rule="evenodd" clip-rule="evenodd" d="M0 6.75C0 5.09315 1.34315 3.75 3 3.75H15C16.6569 3.75 18 5.09315 18 6.75V7.82807L22.8735 4.99976C23.1056 4.86512 23.3918 4.86463 23.6243 4.9985C23.8567 5.13236 24 5.38019 24 5.64844V18.3515C24 18.619 23.8575 18.8663 23.626 19.0004C23.3946 19.1345 23.1092 19.1352 22.8771 19.0022L18 16.2072V17.25C18 18.9069 16.6569 20.25 15 20.25H3C1.34315 20.25 0 18.9069 0 17.25V6.75ZM18 14.4784L22.5 17.0572V6.95084L18 9.56237V14.4784ZM16.5 6.75C16.5 5.92157 15.8284 5.25 15 5.25H3C2.17157 5.25 1.5 5.92157 1.5 6.75V17.25C1.5 18.0784 2.17157 18.75 3 18.75H15C15.8284 18.75 16.5 18.0784 16.5 17.25V6.75Z"/>
</svg>
