<svg width="314" height="59" viewBox="0 0 314 59" fill="none" xmlns="http://www.w3.org/2000/svg">
<path d="M3.9879 33.5881V12.5758H0V33.5881C0 41.4044 3.9879 46.2322 12.6888 46.2322C21.1631 46.2322 25.3776 41.4044 25.3776 33.5881V12.5758H21.3897V33.5881C21.3897 40.0251 18.4441 42.6459 12.6888 42.6459C6.93352 42.6459 3.9879 40.0251 3.9879 33.5881Z" fill="white"/>
<path fill-rule="evenodd" clip-rule="evenodd" d="M35.9365 25.9096V22.6911H32.4017V54.8762H36.0271V42.6918H36.4803C37.8398 44.6689 40.2416 46.2322 43.9576 46.2322C49.3957 46.2322 54.5165 41.9102 54.5165 34.1858C54.5165 26.4613 49.3957 22.1394 43.9576 22.1394C40.1057 22.1394 37.7038 23.8406 36.3896 25.9096H35.9365ZM50.8005 34.1858C50.8005 39.7032 47.7643 42.9217 43.3232 42.9217C38.8821 42.9217 35.8458 39.7032 35.8458 34.1858C35.8458 28.6683 38.8821 25.4498 43.3232 25.4498C47.7643 25.4498 50.8005 28.6683 50.8005 34.1858Z" fill="white"/>
<path d="M63.3533 12.5758V45.6804H59.728V12.5758H63.3533Z" fill="white"/>
<path fill-rule="evenodd" clip-rule="evenodd" d="M90.9515 34.1858C90.9515 27.0591 86.5557 22.1394 79.7581 22.1394C72.9606 22.1394 68.5648 27.0591 68.5648 34.1858C68.5648 41.3125 72.9606 46.2322 79.7581 46.2322C86.5557 46.2322 90.9515 41.3125 90.9515 34.1858ZM87.2354 34.1858C87.2354 39.7032 84.2899 42.9217 79.7581 42.9217C75.2264 42.9217 72.2808 39.7032 72.2808 34.1858C72.2808 28.6683 75.2264 25.4498 79.7581 25.4498C84.2899 25.4498 87.2354 28.6683 87.2354 34.1858Z" fill="white"/>
<path fill-rule="evenodd" clip-rule="evenodd" d="M105.136 22.1394C108.852 22.1394 111.254 23.7026 112.613 25.6797H113.066L113.973 22.6911H116.692V45.6804H113.157V42.4619H112.704C111.389 44.531 108.988 46.2322 105.136 46.2322C99.6976 46.2322 94.5768 41.9102 94.5768 34.1858C94.5768 26.4613 99.6976 22.1394 105.136 22.1394ZM105.77 42.9217C110.211 42.9217 113.247 39.7032 113.247 34.1858C113.247 28.6683 110.211 25.4498 105.77 25.4498C101.329 25.4498 98.2928 28.6683 98.2928 34.1858C98.2928 39.7032 101.329 42.9217 105.77 42.9217Z" fill="white"/>
<path fill-rule="evenodd" clip-rule="evenodd" d="M139.939 25.6797C138.58 23.7027 136.178 22.1394 132.462 22.1394C127.024 22.1394 121.903 26.4614 121.903 34.1858C121.903 41.9102 127.024 46.2322 132.462 46.2322C136.314 46.2322 138.716 44.531 140.03 42.4619H140.483V45.6804H144.018V12.5758H140.392V25.6797H139.939ZM140.574 34.1858C140.574 39.7032 137.537 42.9217 133.096 42.9217C128.655 42.9217 125.619 39.7032 125.619 34.1858C125.619 28.6683 128.655 25.4498 133.096 25.4498C137.537 25.4498 140.574 28.6683 140.574 34.1858Z" fill="white"/>
<path d="M160.695 22.1394C167.13 22.1394 169.939 25.8636 170.71 29.5879V30.2776H166.994C166.495 27.8867 165.181 25.5418 160.649 25.5418C155.891 25.5418 152.945 28.6683 152.945 34.1858C152.945 39.7032 155.891 42.8298 160.649 42.8298C165.181 42.8298 166.722 40.4389 167.266 37.8641H170.982V38.5537C170.166 42.324 167.447 46.2322 160.649 46.2322C153.625 46.2322 149.229 41.3125 149.229 34.1858C149.229 27.0591 153.625 22.1394 160.695 22.1394Z" fill="white"/>
<path fill-rule="evenodd" clip-rule="evenodd" d="M191.963 25.6797C190.604 23.7026 188.202 22.1394 184.486 22.1394C179.048 22.1394 173.927 26.4613 173.927 34.1858C173.927 41.9102 179.048 46.2322 184.486 46.2322C188.338 46.2322 190.74 44.531 192.054 42.4619H192.507V45.6804H196.042V22.6911H193.323L192.417 25.6797H191.963ZM192.598 34.1858C192.598 39.7032 189.562 42.9217 185.12 42.9217C180.679 42.9217 177.643 39.7032 177.643 34.1858C177.643 28.6683 180.679 25.4498 185.12 25.4498C189.562 25.4498 192.598 28.6683 192.598 34.1858Z" fill="white"/>
<path d="M206.374 22.6911V26.1395H206.827C207.552 24.0705 209.32 22.5992 212.809 22.5992H214.848V26.0016H212.855C207.416 26.0016 206.465 29.1741 206.465 33.3122V45.6804H202.839V22.6911H206.374Z" fill="white"/>
<path fill-rule="evenodd" clip-rule="evenodd" d="M238.64 33.2662C238.64 27.0591 235.015 22.1394 227.99 22.1394C221.102 22.1394 216.888 27.0591 216.888 34.1858C216.888 41.2665 221.102 46.2322 228.172 46.2322C234.018 46.2322 237.462 42.8298 238.413 38.7836V38.0939H234.788C234.154 40.7147 232.16 42.9217 228.081 42.9217C223.549 42.9217 220.876 39.6572 220.785 35.1973H238.64V33.2662ZM227.99 25.3579C232.432 25.3579 234.743 28.3465 234.833 32.0707H220.785C220.966 28.2085 223.459 25.3579 227.99 25.3579Z" fill="white"/>
<ellipse cx="284.088" cy="29.5" rx="29.463" ry="29.5" fill="url(#paint0_radial)"/>
<defs>
<radialGradient id="paint0_radial" cx="0" cy="0" r="1" gradientUnits="userSpaceOnUse" gradientTransform="translate(324.074 29.5) rotate(149.184) scale(57.5857 66.3505)">
<stop stop-color="#FFC700"/>
<stop offset="1" stop-color="#FFEDAB"/>
</radialGradient>
</defs>
</svg>
