<svg fill="none" height="140" viewBox="0 0 400 140" width="400" xmlns="http://www.w3.org/2000/svg" xmlns:xlink="http://www.w3.org/1999/xlink"><radialGradient id="a" cx="0" cy="0" gradientTransform="matrix(-49.51791524 29.49986303 -33.9695408 -57.02063228 368.93 69.5)" gradientUnits="userSpaceOnUse" r="1"><stop offset="0" stop-color="#ffc700"/><stop offset="1" stop-color="#ffedab"/></radialGradient><clipPath id="b"><path d="m0 0h400v140h-400z"/></clipPath><g clip-path="url(#b)"><g fill="#000"><path d="m44 52.9293v21.1015c0 7.8496 4.0633 12.6978 12.9287 12.6978 8.6345 0 12.9287-4.8482 12.9287-12.6978v-21.1015h-4.0633v21.1015c0 6.4643-3.0013 9.0963-8.8654 9.0963s-8.8654-2.632-8.8654-9.0963v-21.1015z"/><path d="m77.0017 63.0876v32.3217h3.6939v-12.2361h.4618c1.3852 1.9855 3.8324 3.5554 7.6187 3.5554 5.5408 0 10.7585-4.3403 10.7585-12.0975 0-7.7573-5.2177-12.0976-10.7585-12.0976-3.9248 0-6.372 1.7084-7.7111 3.7863h-.4617v-3.2322zm3.5092 11.5435c0-5.5409 3.0937-8.7731 7.6187-8.7731 4.5251 0 7.6187 3.2322 7.6187 8.7731 0 5.5408-3.0936 8.773-7.6187 8.773-4.525 0-7.6187-3.2322-7.6187-8.773z"/><path d="m104.823 52.9293v33.2452h3.694v-33.2452z"/><path d="m113.849 74.6311c0 7.1569 4.479 12.0975 11.405 12.0975s11.405-4.9406 11.405-12.0975c0-7.157-4.479-12.0976-11.405-12.0976s-11.405 4.9406-11.405 12.0976zm3.786 0c0-5.5409 3.001-8.7731 7.619-8.7731 4.617 0 7.619 3.2322 7.619 8.7731 0 5.5408-3.002 8.773-7.619 8.773-4.618 0-7.619-3.2322-7.619-8.773z"/><path d="m141.194 70.6601h3.694c.462-3.2322 2.678-4.8944 6.326-4.8944 3.463 0 5.91 1.6622 5.91 5.587v1.0158l-8.635.8312c-5.171.5079-7.895 2.9551-7.895 7.0184 0 3.8324 3.278 6.5105 8.034 6.5105 4.109 0 6.649-1.6622 8.127-4.0171h.461v3.463h3.602v-15.0527c0-5.7717-4.063-8.5883-9.604-8.5883-5.772 0-9.374 3.0936-10.02 7.434zm3.186 9.1424c0-2.1701 1.616-3.2321 4.664-3.5092l8.08-.7849v.2308c0 5.4024-3.832 7.7573-7.942 7.7573-2.955 0-4.802-1.3391-4.802-3.694z"/><path d="m166.11 74.6311c0 7.7572 5.218 12.0975 10.759 12.0975 3.924 0 6.372-1.7084 7.711-3.7862h.461v3.2321h3.602v-33.2452h-3.694v13.1596h-.462c-1.385-1.9855-3.832-3.5554-7.618-3.5554-5.541 0-10.759 4.3403-10.759 12.0976zm3.786 0c0-5.5409 3.094-8.7731 7.619-8.7731s7.619 3.2322 7.619 8.7731c0 5.5408-3.094 8.773-7.619 8.773s-7.619-3.2322-7.619-8.773z"/><path d="m193.932 74.6311c0 7.1569 4.479 12.0975 11.636 12.0975 6.926 0 9.696-3.9248 10.527-7.711v-.6926h-3.786c-.554 2.5857-2.124 4.9868-6.741 4.9868-4.849 0-7.85-3.1399-7.85-8.6807 0-5.5409 3.001-8.6807 7.85-8.6807 4.617 0 5.956 2.3548 6.464 4.7559h3.786v-.6926c-.785-3.7401-3.648-7.4802-10.204-7.4802-7.203 0-11.682 4.9406-11.682 12.0976z"/><path d="m220.15 70.6601h3.693c.462-3.2322 2.679-4.8944 6.326-4.8944 3.463 0 5.911 1.6622 5.911 5.587v1.0158l-8.635.8312c-5.171.5079-7.896 2.9551-7.896 7.0184 0 3.8324 3.279 6.5105 8.035 6.5105 4.109 0 6.649-1.6622 8.126-4.0171h.462v3.463h3.601v-15.0527c0-5.7717-4.063-8.5883-9.604-8.5883-5.771 0-9.373 3.0936-10.019 7.434zm3.186 9.1424c0-2.1701 1.616-3.2321 4.663-3.5092l8.081-.7849v.2308c0 5.4024-3.833 7.7573-7.942 7.7573-2.956 0-4.802-1.3391-4.802-3.694z"/><path d="m246.682 63.0876v23.0869h3.694v-12.4207c0-4.1557.969-7.3417 6.51-7.3417h2.032v-3.4169h-2.078c-3.555 0-5.356 1.4776-6.095 3.5554h-.462v-3.463z"/><path d="m261.028 74.6311c0 7.1107 4.294 12.0975 11.498 12.0975 5.956 0 9.465-3.4168 10.435-7.4801v-.6927h-3.694c-.646 2.632-2.678 4.8483-6.834 4.8483-4.617 0-7.341-3.2783-7.434-7.7572h18.193v-1.9393c0-6.2335-3.694-11.1741-10.851-11.1741-7.019 0-11.313 4.9406-11.313 12.0976zm3.971-2.124c.185-3.8786 2.724-6.7414 7.342-6.7414 4.525 0 6.88 3.0013 6.972 6.7414z"/></g><circle cx="328.895" cy="69.5" fill="url(#a)" r="29.5"/></g></svg>