<svg ref="svg" xmlns="http://www.w3.org/2000/svg" viewBox="0 0 24 24" width="24" height="24">
  <path fill="currentColor" fill-rule="evenodd" d="M20.251 12.0001C20.251 12.4143 19.9152 12.7501 19.501 12.7501L6.06696 12.7501L11.7872 18.6007C12.0768 18.8968 12.0715 19.3717 11.7753 19.6613C11.4791 19.9508 11.0043 19.9455 10.7147 19.6493L4.13648 12.9213C4.01578 12.8029 3.91947 12.662 3.85307 12.5065C3.78471 12.3464 3.74947 12.1741 3.74947 12C3.74947 11.8259 3.78471 11.6536 3.85307 11.4935C3.91947 11.338 4.01578 11.1971 4.13648 11.0787L10.7147 4.35068C11.0043 4.0545 11.4791 4.04916 11.7753 4.33873C12.0715 4.62831 12.0768 5.10315 11.7872 5.39932L6.06678 11.2501L19.501 11.2501C19.9152 11.2501 20.251 11.5859 20.251 12.0001Z"></path>
</svg>