<svg ref="svg" xmlns="http://www.w3.org/2000/svg" viewBox="0 0 24 24" width="24" height="24">
  <path fill="currentColor" fill-rule="evenodd" d="m7.65 2.55c.14164-.18885.36393-.3.6-.3h7.5c.2361 0 .4584.11115.6.3l2.025 2.7h2.625c1.6569 0 3 1.34315 3 3v10.5c0 1.6569-1.3431 3-3 3h-18c-1.65685 0-3-1.3431-3-3v-10.5c0-1.65685 1.34315-3 3-3h2.625zm.975 1.2-2.025 2.7c-.14164.18885-.36393.3-.6.3h-3c-.82843 0-1.5.67157-1.5 1.5v10.5c0 .8284.67157 1.5 1.5 1.5h18c.8284 0 1.5-.6716 1.5-1.5v-10.5c0-.82843-.6716-1.5-1.5-1.5h-3c-.2361 0-.4584-.11115-.6-.3l-2.025-2.7zm3.375 6c-1.864 0-3.375 1.511-3.375 3.375s1.511 3.375 3.375 3.375 3.375-1.511 3.375-3.375-1.511-3.375-3.375-3.375zm-4.875 3.375c0-2.6924 2.18261-4.875 4.875-4.875 2.6924 0 4.875 2.1826 4.875 4.875s-2.1826 4.875-4.875 4.875c-2.69239 0-4.875-2.1826-4.875-4.875z"></path>
</svg>