<svg ref="svg" xmlns="http://www.w3.org/2000/svg" viewBox="0 0 24 24" width="24" height="24">
  <path fill="currentColor" fill-rule="evenodd" d="M18.558 2.804a.78.78 0 0 0-.557.235l-.008.007-2.472 2.46 3.847 3.848 2.46-2.473.004-.003a.78.78 0 0 0 0-1.108l-.004-.003-2.712-2.728a.78.78 0 0 0-.558-.235Zm-.248 7.613-3.852-3.852-8.93 8.887-1.516 5.41 5.41-1.515 8.888-8.93Zm-.636-8.934a2.28 2.28 0 0 1 2.512.505l2.702 2.717.002.002a2.278 2.278 0 0 1 0 3.234l-.002.002-12.541 12.602a.75.75 0 0 1-.33.193l-6.884 1.928a.75.75 0 0 1-.925-.924l1.928-6.885a.75.75 0 0 1 .193-.33l12.603-12.54a2.28 2.28 0 0 1 .742-.504Z" clip-rule="evenodd"/>
</svg>
