<svg ref="svg" xmlns="http://www.w3.org/2000/svg" viewBox="0 0 24 24" width="24" height="24">
  <path fill="currentColor" fill-rule="evenodd" d="m21.879394 2.1631238c-1.568367-1.62768627-4.136546-1.53831744-5.596267.1947479l-8.5642801 10.1674753c-1.4906533-.224626-3.061232.258204-4.2082427 1.448604-1.0665468 1.106968-1.0997707 2.464806-1.1203996 3.308068-.00142.05753-.00277.113001-.00439.16549-.02754.894146-.08585 1.463274-.5821351 2.069648l-.80575206.98457.88010766.913285c1.0539516 1.093903 2.6691689 1.587048 4.1744915 1.587048 1.5279113 0 3.2235468-.50598 4.4466094-1.775229 1.147079-1.190514 1.612375-2.820653 1.395772-4.367818l9.796763-8.8879697c1.669907-1.5149954 1.75609-4.1802333.187723-5.8079195zm-16.4593821 13.7924592c.8752943-.908358 2.2944227-.908358 3.1697054 0 .8752942.908358.8752942 2.381259 0 3.289617-.5909138.61325-1.5255389.954428-2.53719.954428-.5223687 0-.9935663-.09031-1.3832112-.232762.3631253-.915463.3952949-1.77626.4154309-2.429737.032192-1.045425.072224-1.308557.3352649-1.581546z"></path>
</svg>