<svg ref="svg" xmlns="http://www.w3.org/2000/svg" viewBox="0 0 24 24" width="24" height="24">
  <path fill="currentColor" fill-rule="evenodd" d="m12.1109 6c.3469-1.69213 1.8444-2.96484 3.6391-2.96484s3.2922 1.27271 3.6391 2.96484h2.314c.4142 0 .75.33578.75.75 0 .41421-.3358.75-.75.75h-2.314c-.3469 1.69213-1.8444 2.9648-3.6391 2.9648s-3.2922-1.27267-3.6391-2.9648h-9.81402c-.41422 0-.75001-.33579-.75-.75 0-.41422.33578-.75.75-.75zm3.6391-1.46484c-1.2232 0-2.2148.99162-2.2148 2.21484s.9916 2.21484 2.2148 2.21484 2.2148-.99162 2.2148-2.21484-.9916-2.21484-2.2148-2.21484zm-11.1391 11.96484c.34691-1.6921 1.84437-2.9648 3.6391-2.9648 1.7947 0 3.2922 1.2727 3.6391 2.9648h9.814c.4142 0 .75.3358.75.75s-.3358.75-.75.75h-9.814c-.3469 1.6921-1.8444 2.9648-3.6391 2.9648-1.79473 0-3.29219-1.2727-3.6391-2.9648h-2.31402c-.41422 0-.75-.3358-.75-.75s.33578-.75.75-.75zm3.6391-1.4648c-1.22322 0-2.21484.9916-2.21484 2.2148s.99162 2.2148 2.21484 2.2148 2.2148-.9916 2.2148-2.2148-.99158-2.2148-2.2148-2.2148z"></path>
</svg>