<svg ref="svg" xmlns="http://www.w3.org/2000/svg" viewBox="0 0 24 24" width="24" height="24">
  <path fill-rule="evenodd" clip-rule="evenodd" d="M17.6832 2.80425C17.5794 2.80425 17.4765 2.82501 17.3808 2.8653C17.285 2.90559 17.1983 2.96461 17.1256 3.03889L17.1185 3.04622L14.646 5.50662L18.4929 9.35355L20.9533 6.8811L20.9568 6.87764C21.0299 6.80514 21.0879 6.71888 21.1275 6.62385C21.1671 6.52881 21.1875 6.42688 21.1875 6.32393C21.1875 6.22098 21.1671 6.11904 21.1275 6.02401C21.0879 5.92897 21.0299 5.84272 20.9568 5.77022L20.9531 5.76657L18.2408 3.03891C18.1682 2.96463 18.0815 2.90559 17.9857 2.8653C17.89 2.82501 17.7871 2.80425 17.6832 2.80425ZM17.4348 10.4168L13.5827 6.5647L4.65224 15.4518L3.13734 20.8622L8.54768 19.3473L17.4348 10.4168ZM16.799 1.48272C17.0789 1.36493 17.3795 1.30425 17.6832 1.30425C17.9869 1.30425 18.2876 1.36493 18.5675 1.48272C18.8464 1.60008 19.0991 1.77177 19.311 1.98778L22.0131 4.70522L22.0152 4.70724C22.2279 4.91877 22.3968 5.1702 22.5122 5.44714C22.6279 5.72496 22.6875 6.02295 22.6875 6.32393C22.6875 6.6249 22.6279 6.92289 22.5122 7.20071C22.3968 7.47771 22.2278 7.72919 22.015 7.94074L22.0131 7.94264L9.47165 20.5453C9.38036 20.637 9.26688 20.7036 9.14225 20.7385L2.25783 22.6661C1.99691 22.7392 1.71688 22.6658 1.52528 22.4742C1.33369 22.2826 1.26033 22.0026 1.33339 21.7417L3.26103 14.8573C3.29592 14.7326 3.36247 14.6192 3.45421 14.5279L16.057 1.98622C16.2686 1.77095 16.5207 1.5998 16.799 1.48272Z" fill="#727272"/>
</svg>
