<svg ref="svg" xmlns="http://www.w3.org/2000/svg" viewBox="0 0 24 24" width="24" height="24">
  <path fill="currentColor" fill-rule="evenodd" d="M5.95874 7.92578C3.66131 7.92578 1.81885 9.76006 1.81885 11.9994C1.81885 14.2402 3.66145 16.0744 5.95874 16.0744C8.26061 16.0744 10.1039 14.2396 10.1039 11.9994C10.1039 9.76071 8.26074 7.92578 5.95874 7.92578ZM0.318848 11.9994C0.318848 8.91296 2.85168 6.42578 5.95874 6.42578C9.06906 6.42578 11.6039 8.91232 11.6039 11.9994C11.6039 15.0877 9.06919 17.5744 5.95874 17.5744C2.85155 17.5744 0.318848 15.0871 0.318848 11.9994ZM18.3898 7.92578C16.0878 7.92578 14.2447 9.76071 14.2447 11.9994C14.2447 14.2396 16.088 16.0744 18.3898 16.0744C20.6886 16.0744 22.531 14.2401 22.531 11.9994C22.531 9.76019 20.6887 7.92578 18.3898 7.92578ZM12.7447 11.9994C12.7447 8.91232 15.2795 6.42578 18.3898 6.42578C21.4981 6.42578 24.031 8.91283 24.031 11.9994C24.031 15.0872 21.4982 17.5744 18.3898 17.5744C15.2794 17.5744 12.7447 15.0877 12.7447 11.9994Z"></path>
</svg>