<svg ref="svg" xmlns="http://www.w3.org/2000/svg" viewBox="0 0 24 24" width="24" height="24">
  <path fill="currentColor" fill-rule="evenodd" d="M6.225 12a5.775 5.775 0 1 1 11.55 0 5.775 5.775 0 0 1-11.55 0zM12 7.725a4.275 4.275 0 1 0 0 8.55 4.275 4.275 0 0 0 0-8.55zM18.425 6.975a1.4 1.4 0 1 0 0-2.8 1.4 1.4 0 0 0 0 2.8zM11.958.175h.084c2.152 0 3.823 0 5.152.132 1.35.134 2.427.41 3.362 1.013a7.15 7.15 0 0 1 2.124 2.124c.604.935.88 2.012 1.013 3.362.132 1.329.132 3 .132 5.152v.084c0 2.152 0 3.823-.132 5.152-.134 1.35-.41 2.427-1.013 3.362a7.15 7.15 0 0 1-2.124 2.124c-.935.604-2.012.88-3.362 1.013-1.329.132-3 .132-5.152.132h-.084c-2.152 0-3.824 0-5.153-.132-1.35-.134-2.427-.409-3.36-1.013a7.15 7.15 0 0 1-2.125-2.124C.716 19.62.44 18.544.307 17.194c-.132-1.329-.132-3-.132-5.152v-.084c0-2.152 0-3.823.132-5.152.133-1.35.409-2.427 1.013-3.362A7.15 7.15 0 0 1 3.444 1.32C4.378.716 5.456.44 6.805.307c1.33-.132 3-.132 5.153-.132zM6.953 1.799c-1.234.123-2.043.36-2.695.78A5.65 5.65 0 0 0 2.58 4.26c-.42.65-.657 1.46-.78 2.695C1.676 8.2 1.675 9.797 1.675 12c0 2.203 0 3.8.124 5.046.123 1.235.36 2.044.78 2.696a5.649 5.649 0 0 0 1.68 1.678c.65.421 1.46.658 2.694.78 1.247.124 2.844.125 5.047.125s3.8 0 5.046-.124c1.235-.123 2.044-.36 2.695-.78a5.648 5.648 0 0 0 1.68-1.68c.42-.65.657-1.46.78-2.694.123-1.247.124-2.844.124-5.047s-.001-3.8-.125-5.046c-.122-1.235-.359-2.044-.78-2.695a5.65 5.65 0 0 0-1.679-1.68c-.651-.42-1.46-.657-2.695-.78-1.246-.123-2.843-.124-5.046-.124-2.203 0-3.8 0-5.047.124z"></path>
</svg>