<svg ref="svg" xmlns="http://www.w3.org/2000/svg" viewBox="0 0 24 24" width="24" height="24">
  <path fill="currentColor" fill-rule="evenodd" d="m6.35673 9.71429c-.76333 0-1.35856.66121-1.27865 1.42031l1.01504 9.6429c.06888.6543.62067 1.1511 1.27865 1.1511h9.25643c.658 0 1.2098-.4968 1.2787-1.1511l1.015-9.6429c.0799-.7591-.5153-1.42031-1.2786-1.42031zm.50041-4.5v.32142h-2.57143c-.71008 0-1.28571.57564-1.28571 1.28572s.57563 1.28571 1.28571 1.28571h15.42859c.7101 0 1.2857-.57563 1.2857-1.28571s-.5756-1.28572-1.2857-1.28572h-2.5714v-.32142c0-1.77521-1.4391-3.21429-3.2143-3.21429h-3.8572c-1.77517 0-3.21426 1.43908-3.21426 3.21429zm7.07146-.64286c.355 0 .6428.28782.6428.64286v.32142h-5.14283v-.32142c0-.35504.28782-.64286.64283-.64286z"></path>
</svg>