<svg ref="svg" xmlns="http://www.w3.org/2000/svg" viewBox="0 0 24 24" width="24" height="24">
  <path fill="currentColor" fill-rule="evenodd" d="m11.9554 3.29999c-.7875 0-1.5427.31281-2.0995.86963-.49303.49303-.79476 1.14159-.85742 1.83037h5.91382c-.0627-.68878-.3644-1.33734-.8575-1.83037-.5568-.55682-1.312-.86963-2.0994-.86963zm4.461 2.7c-.0656-1.08712-.5264-2.11657-1.3009-2.89103-.8381-.83812-1.9749-1.30897-3.1601-1.30897-1.1853 0-2.32204.47085-3.16016 1.30897-.77447.77446-1.23534 1.80391-1.30087 2.89103h-2.31966c-.03797 0-.07529.00282-.11174.00827h-1.98826c-.41422 0-.75.33578-.75.75 0 .41421.33578.75.75.75h1.35v11.84174c0 .7559.30026 1.4808.83474 2.0152.53448.5345 1.25939.8348 2.01526.8348h9.44999c.7559 0 1.4808-.3003 2.0153-.8348.5344-.5344.8347-1.2593.8347-2.0152v-11.84174h1.35c.4142 0 .75-.33579.75-.75 0-.41422-.3358-.75-.75-.75h-1.9883c-.0364-.00545-.0737-.00827-.1117-.00827zm-10.49169 1.50827v11.84174c0 .358.14223.7014.3954.9546.25318.2532.59656.3954.9546.3954h9.44999c.358 0 .7014-.1422.9546-.3954s.3954-.5966.3954-.9546v-11.84174z"></path>
</svg>